<svg xmlns="http://www.w3.org/2000/svg" width="676" height="676" viewBox="0 0 676 676">
<g>
<path d="M 341.00 601.87 C324.46,609.09 305.07,599.55 301.10,582.22 C300.11,577.87 295.70,536.08 290.97,486.00 C286.71,441.05 283.70,421.47 279.76,413.23 C277.87,409.27 277.00,408.45 274.40,408.20 C268.23,407.60 266.80,410.48 244.88,467.50 C231.26,502.91 229.05,507.72 224.34,512.20 C216.28,519.85 201.36,521.86 190.84,516.71 C182.47,512.61 177.85,505.73 176.62,495.50 C176.29,492.75 175.55,471.83 174.98,449.00 C174.41,426.17 173.47,404.49 172.89,400.80 C170.78,387.36 162.14,374.65 152.00,370.08 C145.38,367.09 135.12,367.26 128.20,370.49 C120.91,373.88 112.27,382.44 104.58,393.88 C101.02,399.17 96.63,404.94 94.81,406.70 C87.79,413.49 76.21,415.98 66.01,412.90 C59.99,411.08 52.54,403.85 51.10,398.43 C50.43,395.90 49.92,378.66 49.76,352.93 C49.47,307.49 49.65,305.74 55.20,299.43 C60.20,293.72 65.23,291.68 74.50,291.58 C81.34,291.51 83.33,291.91 88.21,294.30 C94.56,297.42 99.46,302.85 101.78,309.32 C102.72,311.96 103.42,318.49 103.66,327.00 C104.11,342.69 105.91,347.99 111.99,351.47 C122.68,357.59 138.89,350.11 145.39,336.05 C147.45,331.62 147.51,329.88 148.00,269.50 L 148.50 207.50 L 150.89 202.21 C156.75,189.25 172.32,182.82 186.32,187.59 C192.18,189.59 200.31,196.80 202.27,201.74 C203.53,204.91 203.87,218.02 204.44,285.00 C205.42,398.91 206.16,411.85 212.17,419.48 C214.93,423.00 220.20,425.23 223.76,424.39 C233.60,422.08 240.33,406.19 246.54,370.63 C252.47,336.58 252.25,342.18 252.90,212.00 L 253.50 91.50 L 255.76 87.28 C261.19,77.11 269.97,71.80 281.50,71.69 C293.90,71.58 302.41,77.06 307.59,88.45 L 309.88 93.50 L 310.31 247.00 C310.76,407.10 310.75,406.67 315.02,415.05 C319.74,424.28 329.42,424.98 336.77,416.61 C343.56,408.87 345.16,400.59 347.95,358.50 C358.71,195.99 359.08,188.58 362.20,182.61 C362.49,182.05 362.81,181.50 363.16,180.84 C368.50,170.82 377.50,165.68 389.69,165.67 C395.81,165.67 397.82,166.14 403.19,168.88 C410.55,172.63 414.38,176.86 417.55,184.79 C419.97,190.86 419.68,188.40 429.46,286.50 C434.81,340.18 436.50,348.03 444.04,354.38 C447.93,357.66 450.04,357.68 453.85,354.47 C459.52,349.70 459.42,350.39 466.06,274.50 C467.18,261.62 468.78,249.31 469.69,246.53 C471.83,239.96 479.65,232.15 486.50,229.75 C493.77,227.19 503.30,227.45 509.50,230.37 C515.64,233.27 518.89,236.25 522.37,242.19 C525.35,247.27 524.99,245.11 533.00,305.85 C537.44,339.53 538.19,343.64 540.57,347.70 C545.49,356.10 557.92,359.43 564.91,354.22 C570.00,350.43 571.41,346.46 572.05,334.02 C572.73,321.03 574.52,315.63 579.96,310.19 C593.20,296.96 616.49,298.91 623.32,313.82 C625.27,318.09 625.49,320.55 625.82,341.78 C626.09,359.06 625.87,365.45 624.97,366.53 C624.29,367.35 622.07,368.00 619.93,368.00 C608.94,368.00 592.52,375.09 586.50,382.44 C581.43,388.63 577.29,398.40 575.62,408.16 C573.83,418.59 571.41,423.63 566.00,428.27 C561.99,431.70 553.10,435.00 547.87,435.00 C543.57,435.00 535.50,432.14 531.41,429.18 C523.71,423.60 522.71,420.27 517.49,383.00 C514.91,364.58 512.24,348.15 511.54,346.50 C509.70,342.12 505.26,338.14 501.41,337.42 C496.34,336.47 492.06,339.38 488.80,346.01 C486.34,351.01 485.78,354.53 482.51,385.50 C475.67,450.45 476.16,447.48 471.33,453.81 C459.55,469.26 435.14,467.84 425.72,451.16 C422.55,445.54 422.47,445.02 416.46,388.00 C413.13,356.37 411.16,348.16 405.73,343.17 C402.01,339.74 396.15,339.27 390.63,341.94 C382.73,345.76 379.89,353.32 378.02,375.50 C377.42,382.65 375.39,404.02 373.51,423.00 C371.63,441.98 369.16,468.08 368.02,481.00 C366.88,493.92 365.07,513.50 364.00,524.50 C362.93,535.50 361.56,550.58 360.97,558.00 C359.52,576.08 358.30,583.51 356.05,587.86 C353.42,592.95 346.34,599.54 341.00,601.87 Z" fill="rgb(25,25,25)"/>
<path d="M 0.00 338.00 L 0.00 0.00 L 338.00 0.00 L 676.00 0.00 L 676.00 338.00 L 676.00 676.00 L 338.00 676.00 L 0.00 676.00 L 0.00 338.00 ZM 341.00 601.87 C346.34,599.54 353.42,592.95 356.05,587.86 C358.30,583.51 359.52,576.08 360.97,558.00 C361.56,550.58 362.93,535.50 364.00,524.50 C365.07,513.50 366.88,493.92 368.02,481.00 C369.16,468.08 371.63,441.98 373.51,423.00 C375.39,404.02 377.42,382.65 378.02,375.50 C379.89,353.32 382.73,345.76 390.63,341.94 C396.15,339.27 402.01,339.74 405.73,343.17 C411.16,348.16 413.13,356.37 416.46,388.00 C422.47,445.02 422.55,445.54 425.72,451.16 C435.14,467.84 459.55,469.26 471.33,453.81 C476.16,447.48 475.67,450.45 482.51,385.50 C485.78,354.53 486.34,351.01 488.80,346.01 C492.06,339.38 496.34,336.47 501.41,337.42 C505.26,338.14 509.70,342.12 511.54,346.50 C512.24,348.15 514.91,364.58 517.49,383.00 C522.71,420.27 523.71,423.60 531.41,429.18 C535.50,432.14 543.57,435.00 547.87,435.00 C553.10,435.00 561.99,431.70 566.00,428.27 C571.41,423.63 573.83,418.59 575.62,408.16 C577.29,398.40 581.43,388.63 586.50,382.44 C592.52,375.09 608.94,368.00 619.93,368.00 C622.07,368.00 624.29,367.35 624.97,366.53 C625.87,365.45 626.09,359.06 625.82,341.78 C625.49,320.55 625.27,318.09 623.32,313.82 C616.49,298.91 593.20,296.96 579.96,310.19 C574.52,315.63 572.73,321.03 572.05,334.02 C571.41,346.46 570.00,350.43 564.91,354.22 C557.92,359.43 545.49,356.10 540.57,347.70 C538.19,343.64 537.44,339.53 533.00,305.85 C524.99,245.11 525.35,247.27 522.37,242.19 C518.89,236.25 515.64,233.27 509.50,230.37 C503.30,227.45 493.77,227.19 486.50,229.75 C479.65,232.15 471.83,239.96 469.69,246.53 C468.78,249.31 467.18,261.62 466.06,274.50 C459.42,350.39 459.52,349.70 453.85,354.47 C450.04,357.68 447.93,357.66 444.04,354.38 C436.50,348.03 434.81,340.18 429.46,286.50 C419.68,188.40 419.97,190.86 417.55,184.79 C414.38,176.86 410.55,172.63 403.19,168.88 C397.82,166.14 395.81,165.67 389.69,165.67 C377.50,165.68 368.50,170.82 363.16,180.84 C359.05,188.56 359.72,180.73 347.95,358.50 C345.16,400.59 343.56,408.87 336.77,416.61 C329.42,424.98 319.74,424.28 315.02,415.05 C310.75,406.67 310.76,407.10 310.31,247.00 L 309.88 93.50 L 307.59 88.45 C302.41,77.06 293.90,71.58 281.50,71.69 C269.97,71.80 261.19,77.11 255.76,87.28 L 253.50 91.50 L 252.90 212.00 C252.25,342.18 252.47,336.58 246.54,370.63 C240.33,406.19 233.60,422.08 223.76,424.39 C220.20,425.23 214.93,423.00 212.17,419.48 C206.16,411.85 205.42,398.91 204.44,285.00 C203.87,218.02 203.53,204.91 202.27,201.74 C200.31,196.80 192.18,189.59 186.32,187.59 C172.32,182.82 156.75,189.25 150.89,202.21 L 148.50 207.50 L 148.00 269.50 C147.51,329.88 147.45,331.62 145.39,336.05 C138.89,350.11 122.68,357.59 111.99,351.47 C105.91,347.99 104.11,342.69 103.66,327.00 C103.42,318.49 102.72,311.96 101.78,309.32 C99.46,302.85 94.56,297.42 88.21,294.30 C83.33,291.91 81.34,291.51 74.50,291.58 C65.23,291.68 60.20,293.72 55.20,299.43 C49.65,305.74 49.47,307.49 49.76,352.93 C49.92,378.66 50.43,395.90 51.10,398.43 C52.54,403.85 59.99,411.08 66.01,412.90 C76.21,415.98 87.79,413.49 94.81,406.70 C96.63,404.94 101.02,399.17 104.58,393.88 C112.27,382.44 120.91,373.88 128.20,370.49 C135.12,367.26 145.38,367.09 152.00,370.08 C162.14,374.65 170.78,387.36 172.89,400.80 C173.47,404.49 174.41,426.17 174.98,449.00 C175.55,471.83 176.29,492.75 176.62,495.50 C177.85,505.73 182.47,512.61 190.84,516.71 C201.36,521.86 216.28,519.85 224.34,512.20 C229.05,507.72 231.26,502.91 244.88,467.50 C266.80,410.48 268.23,407.60 274.40,408.20 C277.00,408.45 277.87,409.27 279.76,413.23 C283.70,421.47 286.71,441.05 290.97,486.00 C295.70,536.08 300.11,577.87 301.10,582.22 C305.07,599.55 324.46,609.09 341.00,601.87 Z" fill="rgb(253,253,253)"/>
</g>
</svg>