<svg xmlns="http://www.w3.org/2000/svg" width="642" height="642" viewBox="0 0 642 642">
<g>
<path d="M 0.00 0.00 L 642.00 0.00 L 642.00 642.00 L 0.00 642.00 ZM 305.99 588.13 C307.37,588.58 311.68,588.81 315.57,588.64 C324.04,588.26 331.30,584.79 336.69,578.53 C343.07,571.12 343.25,570.30 346.42,534.50 C347.25,525.15 349.06,504.90 350.46,489.50 C351.85,474.10 353.70,453.17 354.57,443.00 C355.44,432.83 357.25,412.35 358.60,397.50 C359.94,382.65 361.50,364.88 362.07,358.00 C364.00,334.39 366.70,326.78 374.47,323.02 C379.51,320.58 381.73,320.51 387.01,322.62 C391.27,324.33 396.00,330.69 396.00,334.72 C396.00,335.84 396.67,338.37 397.50,340.35 C398.44,342.59 399.00,347.15 399.00,352.53 C399.00,357.26 399.52,362.11 400.16,363.30 C400.80,364.50 401.53,371.11 401.79,377.99 C402.04,384.87 402.70,391.36 403.25,392.41 C403.80,393.47 404.60,399.99 405.03,406.91 C405.94,421.73 407.46,428.20 411.33,433.77 C422.68,450.10 448.37,447.86 457.62,429.73 C459.35,426.34 460.32,422.15 461.00,415.23 C461.52,409.88 462.87,396.73 463.99,386.00 C465.12,375.27 466.47,362.00 467.00,356.50 C469.72,328.06 471.15,323.32 478.15,319.56 C481.33,317.84 482.25,317.76 485.88,318.84 C490.18,320.13 494.98,324.40 495.03,326.99 C495.05,327.82 495.72,329.37 496.53,330.44 C497.44,331.64 498.00,334.64 498.00,338.26 C498.00,341.49 498.50,345.06 499.10,346.19 C499.71,347.33 500.44,351.91 500.74,356.38 C501.03,360.84 501.70,365.33 502.22,366.35 C502.75,367.37 503.57,371.42 504.05,375.35 C506.35,394.17 508.75,401.59 514.33,407.17 C519.03,411.88 524.47,413.95 532.17,413.98 C540.52,414.01 546.06,411.70 551.70,405.86 C556.63,400.75 558.64,396.39 559.53,388.92 C562.18,366.58 575.44,352.10 596.22,348.87 C600.22,348.25 604.62,347.42 606.00,347.03 L 608.50 346.33 L 608.48 321.91 C608.46,295.44 608.36,294.91 602.52,288.74 C598.57,284.58 593.74,283.00 584.95,283.00 C578.79,283.00 576.18,283.48 572.62,285.29 C566.53,288.38 558.00,296.51 558.00,299.24 C558.00,299.96 557.39,301.44 556.65,302.53 C555.90,303.61 555.02,307.83 554.69,311.90 C554.36,315.98 553.62,319.78 553.05,320.35 C552.47,320.93 552.00,322.94 552.00,324.83 C552.00,332.09 544.43,339.00 536.47,339.00 C531.08,339.00 524.73,334.20 521.59,327.75 C519.69,323.86 518.62,319.13 517.48,309.50 C515.53,293.17 514.62,285.76 511.98,264.50 C510.81,255.15 509.49,243.61 509.04,238.87 C508.13,229.29 505.05,221.74 500.28,217.45 C490.38,208.54 476.74,207.57 465.41,214.97 C453.96,222.46 451.63,229.62 450.09,262.10 C449.66,271.23 448.91,279.33 448.43,280.10 C447.96,280.87 447.26,287.51 446.88,294.85 C446.50,302.25 445.70,308.70 445.10,309.30 C444.47,309.93 444.00,314.14 444.00,319.17 C444.00,332.87 439.79,339.12 431.60,337.58 C427.03,336.73 423.58,332.28 420.51,323.29 C417.73,315.15 416.89,308.65 411.95,257.50 C403.08,165.66 403.59,169.40 398.70,160.28 C396.83,156.78 387.64,150.18 381.93,148.22 C370.69,144.38 355.65,150.93 348.89,162.63 C344.29,170.59 343.09,178.52 342.09,207.50 C341.62,220.91 340.76,232.74 340.13,234.32 C339.49,235.91 338.97,243.26 338.94,251.32 C338.90,259.12 338.45,268.88 337.93,273.00 C337.41,277.12 336.56,286.12 336.02,293.00 C335.49,299.88 334.61,308.42 334.05,312.00 C333.49,315.58 332.86,328.77 332.65,341.32 C332.39,356.41 331.87,364.53 331.13,365.27 C330.49,365.91 330.00,369.70 329.99,373.95 C329.99,378.69 329.43,382.57 328.49,384.36 C327.67,385.94 327.00,388.02 327.00,388.99 C327.00,392.03 321.85,400.12 318.61,402.16 C316.26,403.64 314.22,404.02 310.24,403.72 C303.43,403.22 300.64,400.61 297.75,392.06 L 295.53 385.50 L 294.98 230.50 C294.67,144.40 294.03,74.39 293.54,73.00 C292.00,68.67 287.20,61.56 284.80,60.06 C278.00,55.81 275.03,55.00 266.30,55.02 C253.43,55.05 246.54,59.01 241.89,69.03 C241.12,70.71 240.46,71.92 239.91,73.18 C236.98,79.89 236.98,87.89 236.98,174.32 C236.98,181.71 236.99,189.69 236.98,198.28 C236.97,298.04 236.74,317.44 235.52,322.50 C234.72,325.80 234.04,331.65 233.99,335.50 C233.95,339.35 233.46,344.52 232.91,347.00 C232.36,349.48 231.58,354.53 231.17,358.24 C230.76,361.94 229.88,365.52 229.21,366.19 C228.55,366.85 228.00,368.67 228.00,370.23 C228.00,371.79 227.32,374.68 226.50,376.65 C225.68,378.63 225.00,381.48 225.00,383.00 C225.00,384.52 224.32,386.32 223.50,387.00 C222.68,387.68 222.00,389.00 222.00,389.93 C222.00,390.86 221.34,392.49 220.53,393.56 C219.72,394.63 219.05,396.27 219.03,397.22 C218.99,399.57 213.70,404.79 210.56,405.57 C202.58,407.58 195.41,402.06 192.48,391.68 C190.25,383.80 189.23,346.18 189.08,266.92 C188.97,202.24 188.47,189.30 185.89,183.51 C181.48,173.64 173.54,168.99 161.17,169.02 C152.07,169.05 147.37,170.90 141.50,176.78 C135.80,182.48 135.00,183.63 134.96,186.21 C134.95,187.47 134.29,189.62 133.50,191.00 C132.31,193.08 132.06,203.08 132.00,251.00 C131.94,298.92 131.69,308.92 130.50,311.00 C129.71,312.38 129.05,314.31 129.04,315.29 C128.98,318.19 122.88,325.56 117.70,328.97 C111.44,333.11 102.55,334.88 97.84,332.94 C89.23,329.37 86.03,321.74 85.94,304.57 C85.86,288.58 82.50,281.90 71.23,275.29 C67.26,272.96 66.19,272.80 57.10,273.17 C48.08,273.53 46.94,273.80 43.38,276.49 C41.25,278.10 39.35,279.78 39.16,280.23 C38.97,280.67 38.30,281.59 37.66,282.27 C33.77,286.40 33.51,289.31 33.23,332.80 C32.99,369.35 33.16,375.40 34.48,377.27 C35.32,378.47 36.00,380.18 36.00,381.07 C36.00,383.47 42.73,389.97 47.42,392.10 C52.50,394.41 61.98,394.57 68.21,392.45 C74.67,390.24 80.21,385.09 86.67,375.28 C99.29,356.12 110.80,347.59 124.02,347.59 C135.86,347.59 144.93,353.22 151.86,364.87 C154.13,368.71 156.00,372.49 156.00,373.27 C156.00,374.05 156.63,376.00 157.40,377.60 C158.50,379.87 158.94,389.35 159.41,421.50 C160.02,462.31 161.37,481.79 163.75,484.16 C164.44,484.84 165.00,485.90 165.00,486.52 C165.00,487.14 166.61,489.52 168.57,491.81 C171.49,495.22 173.45,496.38 179.23,498.14 C185.61,500.08 186.95,500.17 192.81,499.09 C200.52,497.67 203.76,496.12 209.13,491.26 C214.97,485.99 214.32,487.43 232.97,438.50 C242.12,414.49 250.17,397.59 253.48,395.42 C258.27,392.28 264.67,396.16 267.63,404.00 C268.56,406.48 269.51,412.10 269.75,416.50 C269.98,420.90 270.63,425.06 271.20,425.74 C271.77,426.43 272.44,432.95 272.69,440.24 C272.94,447.53 273.60,454.68 274.15,456.13 C274.70,457.58 275.55,463.43 276.04,469.13 C276.53,474.83 277.37,481.75 277.91,484.50 C278.44,487.25 278.91,494.92 278.94,501.55 C278.97,508.53 279.44,514.04 280.05,514.65 C280.62,515.22 281.49,521.28 281.98,528.10 C282.46,534.92 283.31,542.75 283.87,545.50 C284.43,548.25 284.92,553.20 284.97,556.50 C285.20,571.45 293.58,584.05 305.99,588.13 Z" fill="rgb(0,0,0)"/>
<path d="M 240.69 71.52 C238.33,77.78 238.43,88.76 239.37,174.65 C240.17,247.80 239.05,313.26 236.80,324.39 C236.24,327.20 235.56,333.10 235.30,337.49 C235.04,341.89 234.51,345.71 234.12,345.99 C233.54,346.41 232.84,348.21 232.26,350.47 C232.49,349.10 232.72,347.89 232.91,347.00 C233.46,344.52 233.95,339.35 233.99,335.50 C234.04,331.65 234.72,325.80 235.52,322.50 C236.74,317.44 236.97,298.04 236.98,198.28 C236.99,189.76 236.98,181.84 236.98,174.49 L 236.98 174.32 C236.98,87.89 236.98,79.89 239.91,73.18 C240.15,72.63 240.41,72.09 240.69,71.52 ZM 349.20 162.10 C348.45,163.44 348.00,164.64 348.00,165.49 C348.00,166.34 347.56,167.81 347.03,168.76 C345.64,171.23 344.01,190.86 343.05,216.61 C342.58,229.24 341.75,239.60 341.11,240.79 C340.45,242.03 339.98,248.83 339.95,257.68 C339.92,265.83 339.45,275.65 338.91,279.50 C338.36,283.35 337.49,292.35 336.98,299.50 C336.46,306.65 335.58,314.66 335.02,317.30 C334.46,319.94 334.00,329.95 334.00,339.55 C334.00,350.52 333.63,357.00 333.00,357.00 C332.45,357.00 332.00,358.77 332.00,360.94 C332.00,363.11 331.55,365.16 331.00,365.50 C330.98,365.51 330.96,365.53 330.95,365.54 C331.00,365.43 331.06,365.34 331.13,365.27 C331.87,364.53 332.39,356.41 332.65,341.32 C332.86,328.77 333.49,315.58 334.05,312.00 C334.61,308.42 335.49,299.88 336.02,293.00 C336.56,286.12 337.41,277.12 337.93,273.00 C338.45,268.88 338.90,259.12 338.94,251.32 C338.97,243.26 339.49,235.91 340.13,234.32 C340.76,232.74 341.62,220.91 342.09,207.50 C343.09,178.52 344.29,170.59 348.89,162.63 C348.99,162.45 349.10,162.28 349.20,162.10 ZM 157.05 376.82 C157.71,378.21 158.56,379.54 159.22,380.04 C159.61,380.33 160.12,391.81 160.34,405.54 C161.05,448.53 162.67,479.15 164.44,482.52 C165.29,484.16 165.99,486.06 165.99,486.75 C166.00,487.44 166.45,488.00 167.00,488.00 C167.55,488.00 168.00,488.86 168.00,489.91 C168.00,490.61 168.29,491.35 168.81,492.09 C168.73,492.00 168.65,491.91 168.57,491.81 C166.61,489.52 165.00,487.14 165.00,486.52 C165.00,485.90 164.44,484.84 163.75,484.16 C161.37,481.79 160.02,462.31 159.41,421.50 C158.94,389.35 158.50,379.87 157.40,377.60 C157.28,377.35 157.16,377.09 157.05,376.82 ZM 360.92 150.99 C367.63,147.26 375.42,145.99 381.93,148.22 C375.75,146.11 368.14,147.15 360.92,150.99 ZM 230.99 359.64 C230.92,361.81 230.37,364.20 229.69,365.33 C230.16,364.14 230.66,361.99 230.99,359.64 ZM 170.46 493.81 C172.10,495.18 174.49,496.49 177.32,497.53 C174.08,496.45 172.24,495.47 170.46,493.81 ZM 229.01 366.44 C228.45,367.57 228.05,369.10 228.03,370.28 C228.01,371.81 227.32,374.68 226.50,376.65 C227.32,374.68 228.00,371.79 228.00,370.23 C228.00,368.84 228.44,367.24 229.01,366.44 ZM 181.28 498.75 C184.23,499.52 186.05,499.83 188.12,499.75 C185.96,499.88 184.22,499.58 181.28,498.75 ZM 197.40 498.08 C198.68,497.73 199.82,497.35 200.88,496.90 C199.81,497.35 198.67,497.73 197.40,498.08 Z" fill="rgb(191,191,191)"/>
<path d="M 305.99 588.13 C293.58,584.05 285.20,571.45 284.97,556.50 C284.92,553.20 284.43,548.25 283.87,545.50 C283.31,542.75 282.46,534.92 281.98,528.10 C281.49,521.28 280.62,515.22 280.05,514.65 C279.44,514.04 278.97,508.53 278.94,501.55 C278.91,494.92 278.44,487.25 277.91,484.50 C277.37,481.75 276.53,474.83 276.04,469.13 C275.55,463.43 274.70,457.58 274.15,456.13 C273.60,454.68 272.94,447.53 272.69,440.24 C272.44,432.95 271.77,426.43 271.20,425.74 C270.63,425.06 269.98,420.90 269.75,416.50 C269.51,412.10 268.56,406.48 267.63,404.00 C264.67,396.16 258.27,392.28 253.48,395.42 C250.17,397.59 242.12,414.49 232.97,438.50 C214.32,487.43 214.97,485.99 209.13,491.26 C203.84,496.05 200.74,497.56 193.20,499.04 C187.74,500.11 186.07,500.04 180.38,498.50 C173.26,496.58 168.00,492.93 168.00,489.91 C168.00,488.86 167.55,488.00 167.00,488.00 C166.45,488.00 166.00,487.44 165.99,486.75 C165.99,486.06 165.29,484.16 164.44,482.52 C162.67,479.15 161.05,448.53 160.34,405.54 C160.12,391.81 159.61,380.33 159.22,380.04 C157.95,379.09 156.00,375.08 156.00,373.44 C156.00,372.56 154.13,368.71 151.86,364.87 C144.93,353.22 135.86,347.59 124.02,347.59 C110.80,347.59 99.29,356.12 86.67,375.28 C80.21,385.09 74.67,390.24 68.21,392.45 C61.98,394.57 52.50,394.41 47.42,392.10 C42.73,389.97 36.00,383.47 36.00,381.07 C36.00,380.18 35.32,378.47 34.48,377.27 C33.16,375.40 32.99,369.35 33.23,332.80 C33.51,289.31 33.77,286.40 37.66,282.27 C38.30,281.59 38.97,280.67 39.16,280.23 C39.35,279.78 41.25,278.10 43.38,276.49 C46.94,273.80 48.08,273.53 57.10,273.17 C66.19,272.80 67.26,272.96 71.23,275.29 C82.50,281.90 85.86,288.58 85.94,304.57 C86.03,321.74 89.23,329.37 97.84,332.94 C102.55,334.88 111.44,333.11 117.70,328.97 C122.88,325.56 128.98,318.19 129.04,315.29 C129.05,314.31 129.71,312.38 130.50,311.00 C131.69,308.92 131.94,298.92 132.00,251.00 C132.06,203.08 132.31,193.08 133.50,191.00 C134.29,189.62 134.95,187.47 134.96,186.21 C135.00,183.63 135.80,182.48 141.50,176.78 C147.37,170.90 152.07,169.05 161.17,169.02 C173.54,168.99 181.48,173.64 185.89,183.51 C188.47,189.30 188.97,202.24 189.08,266.92 C189.23,346.18 190.25,383.80 192.48,391.68 C195.41,402.06 202.58,407.58 210.56,405.57 C213.70,404.79 218.99,399.57 219.03,397.22 C219.05,396.27 219.72,394.63 220.53,393.56 C221.34,392.49 222.00,390.86 222.00,389.93 C222.00,389.00 222.68,387.68 223.50,387.00 C224.32,386.32 225.00,384.52 225.00,383.00 C225.00,381.48 225.68,378.63 226.50,376.65 C227.32,374.68 228.01,371.81 228.03,370.28 C228.05,368.75 228.72,366.63 229.53,365.56 C230.34,364.49 231.00,361.62 231.00,359.17 C231.00,354.64 232.83,346.91 234.12,345.99 C234.51,345.71 235.04,341.89 235.30,337.49 C235.56,333.10 236.24,327.20 236.80,324.39 C239.05,313.26 240.17,247.80 239.37,174.65 C238.30,76.98 238.32,76.17 241.81,69.03 C246.77,58.87 253.45,55.05 266.30,55.02 C275.03,55.00 278.00,55.81 284.80,60.06 C287.20,61.56 292.00,68.67 293.54,73.00 C294.03,74.39 294.67,144.40 294.98,230.50 L 295.53 385.50 L 297.75 392.06 C300.64,400.61 303.43,403.22 310.24,403.72 C314.22,404.02 316.26,403.64 318.61,402.16 C321.85,400.12 327.00,392.03 327.00,388.99 C327.00,388.02 327.67,385.94 328.49,384.36 C329.44,382.55 329.99,378.68 329.99,373.81 C330.00,369.58 330.45,365.84 331.00,365.50 C331.55,365.16 332.00,363.11 332.00,360.94 C332.00,358.77 332.45,357.00 333.00,357.00 C333.63,357.00 334.00,350.52 334.00,339.55 C334.00,329.95 334.46,319.94 335.02,317.30 C335.58,314.66 336.46,306.65 336.98,299.50 C337.49,292.35 338.36,283.35 338.91,279.50 C339.45,275.65 339.92,265.83 339.95,257.68 C339.98,248.83 340.45,242.03 341.11,240.79 C341.75,239.60 342.58,229.24 343.05,216.61 C344.01,190.86 345.64,171.23 347.03,168.76 C347.56,167.81 348.00,166.34 348.00,165.49 C348.00,162.68 352.89,156.17 357.22,153.23 C365.48,147.60 374.68,145.74 381.93,148.22 C387.64,150.18 396.83,156.78 398.70,160.28 C403.59,169.40 403.08,165.66 411.95,257.50 C416.89,308.65 417.73,315.15 420.51,323.29 C423.58,332.28 427.03,336.73 431.60,337.58 C439.79,339.12 444.00,332.87 444.00,319.17 C444.00,314.14 444.47,309.93 445.10,309.30 C445.70,308.70 446.50,302.25 446.88,294.85 C447.26,287.51 447.96,280.87 448.43,280.10 C448.91,279.33 449.66,271.23 450.09,262.10 C451.63,229.62 453.96,222.46 465.41,214.97 C476.74,207.57 490.38,208.54 500.28,217.45 C505.05,221.74 508.13,229.29 509.04,238.87 C509.49,243.61 510.81,255.15 511.98,264.50 C514.62,285.76 515.53,293.17 517.48,309.50 C518.62,319.13 519.69,323.86 521.59,327.75 C524.73,334.20 531.08,339.00 536.47,339.00 C544.43,339.00 552.00,332.09 552.00,324.83 C552.00,322.94 552.47,320.93 553.05,320.35 C553.62,319.78 554.36,315.98 554.69,311.90 C555.02,307.83 555.90,303.61 556.65,302.53 C557.39,301.44 558.00,299.96 558.00,299.24 C558.00,296.51 566.53,288.38 572.62,285.29 C576.18,283.48 578.79,283.00 584.95,283.00 C593.74,283.00 598.57,284.58 602.52,288.74 C608.36,294.91 608.46,295.44 608.48,321.91 L 608.50 346.33 L 606.00 347.03 C604.62,347.42 600.22,348.25 596.22,348.87 C575.44,352.10 562.18,366.58 559.53,388.92 C558.64,396.39 556.63,400.75 551.70,405.86 C546.06,411.70 540.52,414.01 532.17,413.98 C524.47,413.95 519.03,411.88 514.33,407.17 C508.75,401.59 506.35,394.17 504.05,375.35 C503.57,371.42 502.75,367.37 502.22,366.35 C501.70,365.33 501.03,360.84 500.74,356.38 C500.44,351.91 499.71,347.33 499.10,346.19 C498.50,345.06 498.00,341.49 498.00,338.26 C498.00,334.64 497.44,331.64 496.53,330.44 C495.72,329.37 495.05,327.82 495.03,326.99 C494.98,324.40 490.18,320.13 485.88,318.84 C482.25,317.76 481.33,317.84 478.15,319.56 C471.15,323.32 469.72,328.06 467.00,356.50 C466.47,362.00 465.12,375.27 463.99,386.00 C462.87,396.73 461.52,409.88 461.00,415.23 C460.32,422.15 459.35,426.34 457.62,429.73 C448.37,447.86 422.68,450.10 411.33,433.77 C407.46,428.20 405.94,421.73 405.03,406.91 C404.60,399.99 403.80,393.47 403.25,392.41 C402.70,391.36 402.04,384.87 401.79,377.99 C401.53,371.11 400.80,364.50 400.16,363.30 C399.52,362.11 399.00,357.26 399.00,352.53 C399.00,347.15 398.44,342.59 397.50,340.35 C396.67,338.37 396.00,335.84 396.00,334.72 C396.00,330.69 391.27,324.33 387.01,322.62 C381.73,320.51 379.51,320.58 374.47,323.02 C366.70,326.78 364.00,334.39 362.07,358.00 C361.50,364.88 359.94,382.65 358.60,397.50 C357.25,412.35 355.44,432.83 354.57,443.00 C353.70,453.17 351.85,474.10 350.46,489.50 C349.06,504.90 347.25,525.15 346.42,534.50 C343.25,570.30 343.07,571.12 336.69,578.53 C331.30,584.79 324.04,588.26 315.57,588.64 C311.68,588.81 307.37,588.58 305.99,588.13 Z" fill="rgb(253,253,253)"/>
</g>
</svg>